solid ascii
  facet normal -0.000000e+000 0.000000e+000 1.000000e+000
    outer loop
      vertex   0.000000e+000 1.000000e-001 2.000000e-001
      vertex   0.000000e+000 -1.000000e-001 2.000000e-001
      vertex   3.937008e+000 1.000000e-001 2.000000e-001
    endloop
  endfacet
  facet normal -0.000000e+000 0.000000e+000 1.000000e+000
    outer loop
      vertex   3.937008e+000 1.000000e-001 2.000000e-001
      vertex   0.000000e+000 -1.000000e-001 2.000000e-001
      vertex   3.937008e+000 -1.000000e-001 2.000000e-001
    endloop
  endfacet
  facet normal 0.000000e+000 1.000000e+000 -0.000000e+000
    outer loop
      vertex   3.937008e+000 1.000000e-001 -7.500000e-002
      vertex   0.000000e+000 1.000000e-001 -7.500000e-002
      vertex   3.937008e+000 1.000000e-001 7.500000e-002
    endloop
  endfacet
  facet normal 0.000000e+000 1.000000e+000 -0.000000e+000
    outer loop
      vertex   3.937008e+000 1.000000e-001 7.500000e-002
      vertex   0.000000e+000 1.000000e-001 -7.500000e-002
      vertex   0.000000e+000 1.000000e-001 7.500000e-002
    endloop
  endfacet
  facet normal 0.000000e+000 0.000000e+000 -1.000000e+000
    outer loop
      vertex   0.000000e+000 -1.000000e-001 -2.000000e-001
      vertex   0.000000e+000 1.000000e-001 -2.000000e-001
      vertex   3.937008e+000 -1.000000e-001 -2.000000e-001
    endloop
  endfacet
  facet normal 0.000000e+000 0.000000e+000 -1.000000e+000
    outer loop
      vertex   3.937008e+000 -1.000000e-001 -2.000000e-001
      vertex   0.000000e+000 1.000000e-001 -2.000000e-001
      vertex   3.937008e+000 1.000000e-001 -2.000000e-001
    endloop
  endfacet
  facet normal 0.000000e+000 -1.000000e+000 0.000000e+000
    outer loop
      vertex   0.000000e+000 -1.000000e-001 2.000000e-001
      vertex   0.000000e+000 -1.000000e-001 -2.000000e-001
      vertex   3.937008e+000 -1.000000e-001 2.000000e-001
    endloop
  endfacet
  facet normal 0.000000e+000 -1.000000e+000 -0.000000e+000
    outer loop
      vertex   3.937008e+000 -1.000000e-001 2.000000e-001
      vertex   0.000000e+000 -1.000000e-001 -2.000000e-001
      vertex   3.937008e+000 -1.000000e-001 -2.000000e-001
    endloop
  endfacet
  facet normal -0.000000e+000 8.574929e-001 5.144958e-001
    outer loop
      vertex   0.000000e+000 1.000000e-001 2.000000e-001
      vertex   3.937008e+000 1.000000e-001 2.000000e-001
      vertex   0.000000e+000 1.750000e-001 7.500000e-002
    endloop
  endfacet
  facet normal 0.000000e+000 8.574929e-001 5.144958e-001
    outer loop
      vertex   0.000000e+000 1.750000e-001 7.500000e-002
      vertex   3.937008e+000 1.000000e-001 2.000000e-001
      vertex   3.937008e+000 1.750000e-001 7.500000e-002
    endloop
  endfacet
  facet normal 0.000000e+000 -0.000000e+000 -1.000000e+000
    outer loop
      vertex   0.000000e+000 1.750000e-001 7.500000e-002
      vertex   3.937008e+000 1.750000e-001 7.500000e-002
      vertex   0.000000e+000 1.000000e-001 7.500000e-002
    endloop
  endfacet
  facet normal 0.000000e+000 0.000000e+000 -1.000000e+000
    outer loop
      vertex   0.000000e+000 1.000000e-001 7.500000e-002
      vertex   3.937008e+000 1.750000e-001 7.500000e-002
      vertex   3.937008e+000 1.000000e-001 7.500000e-002
    endloop
  endfacet
  facet normal 0.000000e+000 -0.000000e+000 1.000000e+000
    outer loop
      vertex   0.000000e+000 1.000000e-001 -7.500000e-002
      vertex   3.937008e+000 1.000000e-001 -7.500000e-002
      vertex   0.000000e+000 1.750000e-001 -7.500000e-002
    endloop
  endfacet
  facet normal -0.000000e+000 0.000000e+000 1.000000e+000
    outer loop
      vertex   0.000000e+000 1.750000e-001 -7.500000e-002
      vertex   3.937008e+000 1.000000e-001 -7.500000e-002
      vertex   3.937008e+000 1.750000e-001 -7.500000e-002
    endloop
  endfacet
  facet normal 0.000000e+000 8.574929e-001 -5.144958e-001
    outer loop
      vertex   0.000000e+000 1.750000e-001 -7.500000e-002
      vertex   3.937008e+000 1.750000e-001 -7.500000e-002
      vertex   0.000000e+000 1.000000e-001 -2.000000e-001
    endloop
  endfacet
  facet normal 0.000000e+000 8.574929e-001 -5.144958e-001
    outer loop
      vertex   0.000000e+000 1.000000e-001 -2.000000e-001
      vertex   3.937008e+000 1.750000e-001 -7.500000e-002
      vertex   3.937008e+000 1.000000e-001 -2.000000e-001
    endloop
  endfacet
  facet normal 1.000000e+000 0.000000e+000 0.000000e+000
    outer loop
      vertex   3.937008e+000 1.750000e-001 -7.500000e-002
      vertex   3.937008e+000 1.000000e-001 -7.500000e-002
      vertex   3.937008e+000 1.000000e-001 -2.000000e-001
    endloop
  endfacet
  facet normal 1.000000e+000 0.000000e+000 -0.000000e+000
    outer loop
      vertex   3.937008e+000 1.000000e-001 -2.000000e-001
      vertex   3.937008e+000 1.000000e-001 -7.500000e-002
      vertex   3.937008e+000 -1.000000e-001 -2.000000e-001
    endloop
  endfacet
  facet normal 1.000000e+000 0.000000e+000 0.000000e+000
    outer loop
      vertex   3.937008e+000 -1.000000e-001 -2.000000e-001
      vertex   3.937008e+000 1.000000e-001 -7.500000e-002
      vertex   3.937008e+000 1.000000e-001 7.500000e-002
    endloop
  endfacet
  facet normal 1.000000e+000 -0.000000e+000 0.000000e+000
    outer loop
      vertex   3.937008e+000 -1.000000e-001 2.000000e-001
      vertex   3.937008e+000 1.000000e-001 7.500000e-002
      vertex   3.937008e+000 1.000000e-001 2.000000e-001
    endloop
  endfacet
  facet normal 1.000000e+000 -0.000000e+000 0.000000e+000
    outer loop
      vertex   3.937008e+000 -1.000000e-001 2.000000e-001
      vertex   3.937008e+000 -1.000000e-001 -2.000000e-001
      vertex   3.937008e+000 1.000000e-001 7.500000e-002
    endloop
  endfacet
  facet normal 1.000000e+000 0.000000e+000 -0.000000e+000
    outer loop
      vertex   3.937008e+000 1.000000e-001 7.500000e-002
      vertex   3.937008e+000 1.750000e-001 7.500000e-002
      vertex   3.937008e+000 1.000000e-001 2.000000e-001
    endloop
  endfacet
  facet normal -1.000000e+000 -0.000000e+000 0.000000e+000
    outer loop
      vertex   0.000000e+000 1.750000e-001 -7.500000e-002
      vertex   0.000000e+000 1.000000e-001 -2.000000e-001
      vertex   0.000000e+000 1.000000e-001 -7.500000e-002
    endloop
  endfacet
  facet normal -1.000000e+000 -0.000000e+000 -0.000000e+000
    outer loop
      vertex   0.000000e+000 1.000000e-001 -7.500000e-002
      vertex   0.000000e+000 1.000000e-001 -2.000000e-001
      vertex   0.000000e+000 -1.000000e-001 -2.000000e-001
    endloop
  endfacet
  facet normal -1.000000e+000 0.000000e+000 -0.000000e+000
    outer loop
      vertex   0.000000e+000 -1.000000e-001 2.000000e-001
      vertex   0.000000e+000 1.000000e-001 -7.500000e-002
      vertex   0.000000e+000 -1.000000e-001 -2.000000e-001
    endloop
  endfacet
  facet normal -1.000000e+000 0.000000e+000 0.000000e+000
    outer loop
      vertex   0.000000e+000 -1.000000e-001 2.000000e-001
      vertex   0.000000e+000 1.000000e-001 7.500000e-002
      vertex   0.000000e+000 1.000000e-001 -7.500000e-002
    endloop
  endfacet
  facet normal -1.000000e+000 0.000000e+000 0.000000e+000
    outer loop
      vertex   0.000000e+000 -1.000000e-001 2.000000e-001
      vertex   0.000000e+000 1.000000e-001 2.000000e-001
      vertex   0.000000e+000 1.000000e-001 7.500000e-002
    endloop
  endfacet
  facet normal -1.000000e+000 0.000000e+000 0.000000e+000
    outer loop
      vertex   0.000000e+000 1.000000e-001 7.500000e-002
      vertex   0.000000e+000 1.000000e-001 2.000000e-001
      vertex   0.000000e+000 1.750000e-001 7.500000e-002
    endloop
  endfacet
endsolid
